<?xml version="1.0" encoding="UTF-8"?>
<svg id="Calque_1" data-name="Calque 1" xmlns="http://www.w3.org/2000/svg" viewBox="0 0 770.08 722.46">
  <path d="M769.88,509.03c-.16-4.12-.44-8.25-.76-12.39l-.13-1.31c-.34-4.14-.75-8.28-1.2-12.42l-27.9-288.04c-1.1-12.35-2.15-24.71-3.03-37.08-1.61-22.61-4.15-45.61-12.22-66.94-2.64-6.99-5.94-13.62-9.64-20.1-18.1-30.38-47.28-53.55-81.03-64.14-14.02-4.4-28.69-6.62-43.38-6.62-46.39,0-85.23,26.58-119.06,55.69-40.15,34.55-80.55,68.81-120.92,103.1-50.55,42.95-98.5,83.73-149.46,127.39-26.71,22.88-54.78,45.92-82.48,67.6-24.87,19.46-54.01,41.33-74.68,65.53C17.28,450.59.86,490.95.03,535.12c-1.9,101.37,79.81,185.92,181.2,187.32,102.72,1.42,186.43-81.42,186.43-183.81,0-30.97-7.62-62.12-23.23-89.4-7.44-13.01-23.21-31.37-34.74-40.96s-22.98-19.04-30.97-31.98c-11.84-19.18-18.13-41.5-18.13-64.03,0-67.44,54.67-122.11,122.11-122.11,53.51,0,99.1,33.31,126.46,77.56,31.24,50.53,31.64,105.12,31.64,162.6,0,33.1,0,66.2,0,99.3,0,63.36,51.37,114.73,114.73,114.73,44.3,0,84.26-26.56,103.04-66.41,10.03-21.29,12.27-44.86,11.32-68.89Z"/>
</svg>