<?xml version="1.0" encoding="UTF-8"?>
<svg id="Calque_1" data-name="Calque 1" xmlns="http://www.w3.org/2000/svg" viewBox="0 0 1658.64 449.4">
  <g>
    <path d="M730.45,322.06l1.64-161.04,39.71.4-2.81,275.76-39.71-.4.5-49.64c-16.9,34.58-48,55.77-94.33,55.3-63.98-.65-99.97-41.28-99.29-107.46l1.79-175.93,40.26.41-1.72,168.76c-.56,54.6,29.49,83.04,71.96,83.47,46.33.47,77.54-31.2,81.99-89.63Z"/>
    <path d="M978.33,408.98c45.78.47,81.31-22.34,98.34-69.6l21.56,49.31c-22.96,33.96-67.86,55.57-121.91,55.02-88.79-.9-142.24-61.02-141.4-143.74.84-82.73,55.5-141.74,144.29-140.84,54.05.55,98.5,23.06,120.76,57.49l-22.56,48.86c-16.06-47.6-51.12-71.12-96.9-71.59-65.08-.66-103.63,47.49-104.23,106.5-.6,59.01,36.96,107.93,102.04,108.59Z"/>
    <path d="M1169.46,0l39.71.4-4.49,441.21-39.71-.4L1169.46,0Z"/>
    <path d="M1311.78,52.19h0c16.14.16,29.1,13.38,28.93,29.53h0c-.16,16.14-13.38,29.1-29.53,28.93h0c-16.14-.16-29.1-13.38-28.93-29.53h0c.16-16.14,13.38-29.1,29.53-28.93ZM1290.76,166.71l39.71.4-2.8,275.76-39.71-.4,2.8-275.76Z"/>
    <path d="M1536.99,414.66c45.78.47,81.31-22.34,98.34-69.6l21.56,49.31c-22.96,33.96-67.86,55.57-121.91,55.02-88.79-.9-142.24-61.02-141.4-143.74.84-82.73,55.5-141.74,144.29-140.84,54.05.55,98.5,23.06,120.76,57.49l-22.56,48.86c-16.06-47.6-51.12-71.12-96.9-71.59-65.08-.66-103.63,47.49-104.23,106.5-.6,59.01,36.96,107.93,102.04,108.59Z"/>
  </g>
  <path d="M382.73,343.3c-.08-2.05-.22-4.1-.38-6.16l-.06-.65c-.17-2.06-.37-4.12-.6-6.17l-13.87-143.19c-.55-6.14-1.07-12.28-1.5-18.43-.8-11.24-2.06-22.67-6.07-33.28-1.31-3.48-2.95-6.77-4.79-9.99-9-15.1-23.5-26.62-40.28-31.89-6.97-2.19-14.26-3.29-21.57-3.29-23.06,0-42.37,13.21-59.19,27.69-19.96,17.17-40.04,34.21-60.11,51.26-25.13,21.35-48.97,41.63-74.3,63.33-13.28,11.38-27.23,22.83-41,33.6-12.36,9.67-26.85,20.55-37.12,32.58C8.59,314.25.43,334.31.02,356.27c-.94,50.4,39.68,92.43,90.08,93.12,51.06.71,92.68-40.48,92.68-91.38,0-15.39-3.79-30.88-11.55-44.45-3.7-6.47-11.54-15.6-17.27-20.36-5.72-4.76-11.42-9.46-15.4-15.9-5.89-9.53-9.01-20.63-9.01-31.83,0-33.53,27.18-60.7,60.7-60.7,26.6,0,49.26,16.56,62.86,38.56,15.53,25.12,15.73,52.26,15.73,80.84,0,16.45,0,32.91,0,49.37,0,31.5,25.54,57.03,57.03,57.03,22.02,0,41.89-13.2,51.23-33.02,4.99-10.59,6.1-22.3,5.63-34.25Z"/>
</svg>